<?xml version="1.0" standalone="no"?>
<!DOCTYPE svg PUBLIC "-//W3C//DTD SVG 20010904//EN"
 "http://www.w3.org/TR/2001/REC-SVG-20010904/DTD/svg10.dtd">
<svg version="1.0" xmlns="http://www.w3.org/2000/svg"
 width="512.000000pt" height="512.000000pt" viewBox="0 0 512.000000 512.000000"
 preserveAspectRatio="xMidYMid meet">
<metadata>
Created by potrace 1.14, written by Peter Selinger 2001-2017
</metadata>
<g transform="translate(0.000000,512.000000) scale(0.100000,-0.100000)"
fill="#000000" stroke="none">
<path d="M2374 5000 c-330 -26 -615 -105 -919 -255 -407 -201 -721 -475 -972
-847 -279 -415 -423 -889 -423 -1393 0 -559 180 -1091 516 -1524 97 -126 137
-168 142 -153 12 37 91 138 156 200 134 127 306 207 468 219 l83 6 0 230 0
231 -87 61 c-121 84 -249 195 -299 257 -50 64 -105 171 -123 241 l-13 52 -114
5 c-124 6 -153 16 -208 71 -68 67 -66 53 -69 491 -2 268 1 411 8 439 13 48 76
120 128 145 26 13 69 20 146 24 l109 5 17 60 c22 83 82 192 140 257 27 31 91
89 142 131 299 241 650 393 1048 454 142 21 473 24 605 5 204 -29 436 -93 588
-161 l67 -30 0 197 0 197 -35 34 c-43 42 -72 102 -81 167 l-6 52 -102 30
c-282 86 -623 124 -912 102z"/>
<path d="M3847 4629 c-15 -9 -17 -36 -17 -302 l0 -293 52 -39 c188 -142 290
-275 334 -432 l17 -61 111 -3 c100 -4 116 -7 158 -32 59 -34 98 -84 114 -145
17 -64 7 -802 -11 -847 -20 -50 -66 -96 -120 -121 -42 -20 -66 -24 -151 -24
l-100 0 -13 -51 c-19 -72 -82 -194 -133 -256 -59 -71 -164 -161 -280 -240
l-98 -67 0 -231 0 -232 69 -7 c139 -12 296 -79 416 -177 69 -56 117 -110 172
-196 l39 -59 40 45 c282 318 495 758 573 1186 128 694 -38 1400 -460 1963
-149 198 -311 359 -514 509 -139 102 -176 124 -198 112z"/>
<path d="M2325 3825 c-232 -38 -453 -130 -633 -264 -142 -106 -207 -186 -242
-300 -18 -58 -20 -92 -20 -440 0 -409 4 -445 57 -542 54 -99 218 -239 379
-321 363 -187 773 -223 1155 -102 163 52 332 143 474 257 87 70 131 125 173
214 26 56 27 66 33 298 4 132 4 326 0 430 l-7 191 -37 78 c-97 204 -429 411
-782 488 -122 27 -422 33 -550 13z m817 -463 c49 -62 130 -123 200 -148 l47
-18 -55 -22 c-72 -29 -126 -67 -176 -123 -40 -45 -97 -151 -99 -181 0 -8 -9 6
-19 33 -53 129 -170 245 -281 278 l-39 12 79 38 c99 48 184 136 226 232 l29
65 22 -55 c13 -31 42 -81 66 -111z"/>
</g>
</svg>
